# Blender v2.82 (sub 7) OBJ File: 'magican.blend'
# www.blender.org
mtllib magican_cape.mtl
o cloak_dl_helmet.001
v 0.564142 -0.062131 0.358857
v 1.006014 -0.141310 0.755605
v -1.121951 -0.184995 0.658413
v -0.587594 -0.048406 0.324076
v 0.024882 -0.038974 0.207754
v 0.936167 -0.628982 -0.281895
v 1.754488 -0.705258 0.376237
v -1.837319 -0.837649 0.443008
v -1.006623 -0.655498 -0.236720
v 0.001359 -0.622153 -0.329445
v 1.083538 -1.434832 -0.369944
v 2.059274 -1.535431 0.263632
v -2.274976 -1.504779 0.321196
v -1.255863 -1.378592 -0.330999
v -0.039946 -1.390543 -0.410937
v 1.189203 -2.290288 -0.351236
v 2.179814 -2.368366 0.242732
v -2.220511 -2.344575 0.215777
v -1.185863 -2.246638 -0.392006
v 0.048591 -2.255913 -0.381653
v 1.274697 -3.253327 -0.351236
v 2.265308 -3.331405 0.242732
v -2.286757 -3.323269 0.215777
v -1.252109 -3.225331 -0.392006
v -0.017655 -3.234607 -0.381653
v 1.340943 -4.315945 -0.351236
v 2.331554 -4.394023 0.242732
v -2.220511 -4.385886 0.285445
v -1.185863 -4.287948 -0.322339
v 0.048591 -4.297225 -0.381653
v 1.350197 -5.407896 -0.355531
v 2.419883 -5.492207 0.247530
v -2.331695 -5.466517 0.293652
v -1.214456 -5.360761 -0.324327
v 0.118536 -5.370778 -0.388376
v -2.493370 -6.540385 0.301131
v 2.578270 -6.567805 0.251902
v 1.436532 -6.477816 -0.359445
v -1.300875 -6.427506 -0.326139
v 0.121907 -6.438198 -0.394501
v -2.493370 -7.788864 0.301131
v 2.578270 -7.816285 0.251902
v 1.436532 -7.726295 -0.359445
v -1.300875 -7.675985 -0.326139
v 0.121907 -7.686676 -0.394501
v 2.578270 -8.650707 0.251902
v 1.436532 -9.199388 -0.359445
v -1.300875 -9.149078 -0.326139
v 0.121907 -9.497889 -0.394501
vt 0.171352 0.924056
vt 0.297696 0.856994
vt 0.324301 0.882339
vt 0.590135 0.952444
vt 0.484293 0.874048
vt 0.651291 0.881403
vt 0.492753 0.926279
vt 0.676838 0.983914
vt 0.779827 0.894690
vt 0.477499 0.821427
vt 0.664434 0.817606
vt 0.830495 0.809083
vt 0.492374 0.734575
vt 0.683608 0.731526
vt 0.285776 0.736024
vt 0.851633 0.724395
vt 0.481136 0.635720
vt 0.698604 0.634038
vt 0.837250 0.615436
vt 0.492141 0.528020
vt 0.710093 0.526218
vt 0.283601 0.529129
vt 0.831609 0.518498
vt 0.711813 0.415277
vt 0.846824 0.411784
vt 0.107540 0.519300
vt 0.278656 0.420057
vt 0.503917 0.418981
vt 0.504505 0.310513
vt 0.712901 0.313923
vt 0.863843 0.302424
vt 0.688421 0.221472
vt 0.886144 0.177946
vt 0.267762 0.216671
vt 0.504555 0.183610
vt 0.496031 0.041290
vt 0.256715 0.122248
vt 0.264088 0.311610
vt 0.127276 0.888491
vt 0.275034 0.823770
vt 0.273684 0.637228
vt 0.088557 0.409397
vt 0.122707 0.264257
vt 0.119931 0.724783
vt 0.122739 0.825789
vt 0.126337 0.635015
vt 0.120270 0.345700
vt 0.725451 0.076617
vt 0.963745 -0.001639
vn 0.5020 -0.7373 0.4522
vn 0.3339 -0.5104 0.7925
vn 0.2724 -0.7353 0.6206
vn -0.3121 -0.7646 0.5639
vn 0.0069 -0.4369 0.8995
vn -0.3216 -0.4957 0.8068
vn -0.0471 -0.6757 0.7356
vn -0.4497 -0.7963 0.4046
vn -0.5399 -0.5090 0.6703
vn 0.0023 -0.0493 0.9988
vn -0.3196 -0.1034 0.9419
vn -0.5379 -0.1738 0.8249
vn -0.0193 0.0152 0.9997
vn -0.2896 -0.0262 0.9568
vn 0.2576 -0.0203 0.9660
vn -0.5170 -0.0684 0.8532
vn -0.0079 0.0079 0.9999
vn -0.2812 -0.0215 0.9594
vn -0.5161 -0.0384 0.8557
vn 0.0122 -0.0023 0.9999
vn -0.2833 -0.0128 0.9589
vn 0.2713 0.0288 0.9621
vn -0.5090 -0.0271 0.8604
vn -0.2661 -0.0185 0.9638
vn -0.4875 -0.0471 0.8718
vn 0.4980 0.0241 0.8669
vn 0.2718 -0.0219 0.9621
vn 0.0103 -0.0052 0.9999
vn 0.0106 -0.0029 0.9999
vn -0.2657 -0.0164 0.9639
vn -0.4737 -0.0302 0.8802
vn -0.2562 0.0000 0.9666
vn -0.4720 0.0000 0.8816
vn 0.2630 0.0000 0.9648
vn 0.0107 0.0000 0.9999
vn 0.0104 0.0000 0.9999
vn 0.1773 0.0000 0.9842
vn 0.2690 -0.0125 0.9631
vn 0.5861 -0.5863 0.5592
vn 0.3414 -0.1467 0.9284
vn 0.2663 0.0286 0.9635
vn 0.4874 -0.0569 0.8713
vn 0.4655 0.0000 0.8850
vn 0.5190 -0.0420 0.8538
vn 0.5717 -0.2190 0.7907
vn 0.5041 0.0306 0.8631
vn 0.4718 -0.0247 0.8814
vn -0.2078 0.0000 0.9782
usemtl cloak
s 1
f 3/1/1 9/2/2 4/3/3
f 1/4/4 10/5/5 6/6/6
f 4/3/3 10/5/5 5/7/7
f 2/8/8 6/6/6 7/9/9
f 6/6/6 15/10/10 11/11/11
f 7/9/9 11/11/11 12/12/12
f 11/11/11 20/13/13 16/14/14
f 15/10/10 19/15/15 20/13/13
f 12/12/12 16/14/14 17/16/16
f 16/14/14 25/17/17 21/18/18
f 17/16/16 21/18/18 22/19/19
f 21/18/18 30/20/20 26/21/21
f 25/17/17 29/22/22 30/20/20
f 22/19/19 26/21/21 27/23/23
f 27/23/23 31/24/24 32/25/25
f 28/26/26 34/27/27 29/22/22
f 26/21/21 35/28/28 31/24/24
f 30/20/20 34/27/27 35/28/28
f 31/24/24 40/29/29 38/30/30
f 32/25/25 38/30/30 37/31/31
f 37/31/31 43/32/32 42/33/33
f 40/29/29 44/34/34 45/35/35
f 38/30/30 45/35/35 43/32/32
f 49/36/36 44/34/34 48/37/37
f 40/29/29 39/38/38 44/34/34
f 38/30/30 40/29/29 45/35/35
f 3/1/1 8/39/39 9/2/2
f 1/4/4 5/7/7 10/5/5
f 4/3/3 9/2/2 10/5/5
f 2/8/8 1/4/4 6/6/6
f 6/6/6 10/5/5 15/10/10
f 7/9/9 6/6/6 11/11/11
f 11/11/11 15/10/10 20/13/13
f 15/10/10 14/40/40 19/15/15
f 12/12/12 11/11/11 16/14/14
f 16/14/14 20/13/13 25/17/17
f 17/16/16 16/14/14 21/18/18
f 21/18/18 25/17/17 30/20/20
f 25/17/17 24/41/41 29/22/22
f 22/19/19 21/18/18 26/21/21
f 27/23/23 26/21/21 31/24/24
f 28/26/26 33/42/42 34/27/27
f 26/21/21 30/20/20 35/28/28
f 30/20/20 29/22/22 34/27/27
f 31/24/24 35/28/28 40/29/29
f 32/25/25 31/24/24 38/30/30
f 37/31/31 38/30/30 43/32/32
f 48/37/37 44/34/34 41/43/43
f 14/40/40 18/44/44 19/15/15
f 14/40/40 13/45/45 18/44/44
f 9/2/2 13/45/45 14/40/40
f 9/2/2 8/39/39 13/45/45
f 10/5/5 14/40/40 15/10/10
f 10/5/5 9/2/2 14/40/40
f 19/15/15 23/46/46 24/41/41
f 19/15/15 18/44/44 23/46/46
f 20/13/13 24/41/41 25/17/17
f 20/13/13 19/15/15 24/41/41
f 24/41/41 28/26/26 29/22/22
f 24/41/41 23/46/46 28/26/26
f 35/28/28 39/38/38 40/29/29
f 35/28/28 34/27/27 39/38/38
f 34/27/27 36/47/47 39/38/38
f 34/27/27 33/42/42 36/47/47
f 39/38/38 41/43/43 44/34/34
f 39/38/38 36/47/47 41/43/43
f 42/33/33 47/48/48 46/49/33
f 42/33/33 43/32/32 47/48/48
f 43/32/32 49/36/36 47/48/48
f 49/36/36 45/35/35 44/34/34
f 43/32/32 45/35/35 49/36/36
